<?xml version="1.0" encoding="UTF-8"?>
<svg version="1.1" viewBox="0 0 800 800" width="200" height="200" xmlns="http://www.w3.org/2000/svg">
<path transform="translate(0)" d="m0 0h800v800h-800z" fill="#FDFDFD"/>
<path transform="translate(0,435)" d="m0 0h800v365h-800z" fill="#FCFCFC"/>
<path transform="translate(682,153)" d="m0 0h30l18 3 16 5 19 9 16 11 7 6 1 3-25 25-4-2-14-9-14-6-13-4-15-2h-11l-15 2-14 4-14 7-13 10-10 12-8 14-6 15-3 15-1 10v11l3 21 6 16 7 12 9 10 10 8 16 8 13 4 10 2h30l17-4 17-8 10-7 1-2v-47l-64-1v-37l102-1 2 3-1 102-13 13-15 11-17 9-18 6-15 3-11 1h-17l-22-2-18-4-19-7-14-8-9-7-10-9-10-12-9-16-5-12-5-17-3-20v-27l4-24 7-21 10-19 8-11 11-12 9-8 14-9 14-7 20-6z" fill="#020202"/>
<path transform="translate(196,152)" d="m0 0h63l-4 6-8 7-7 8-53 53-7 8-29 29-3 5 7 8 15 15 2 1v2l4 2v2h2v2h2v2l4 2 33 33 8 7 31 31 8 7v2l4 2v2l4 2v2l4 2 17 17 3 4h-62l-12-11-48-48-6-5-6-7-2-1v-2l-4-2-38-38-3-1-36 36-1 2h-2v2h-2l-2 4-41 41-5 6-6 5-7 8-9 9h-4v-18h1l1-45 15-16 19-19 7-8 41-41 7-8 42-42 7-8 28-28 14-16h2l2-4 6-5 1-2z" fill="#01845A"/>
<path transform="translate(415,154)" d="m0 0h33l21 4 16 6 17 9 16 12 5 5-21 21-8 6-9-7-17-9-19-5-11-1h-12l-16 2-14 4-16 8-9 7-8 8-9 14-6 14-4 16-1 7v20l3 17 5 14 6 11 9 11 9 8 14 8 13 5 20 4h20l16-3 16-6 11-6 12-9 7 6 9 9 7 8 6 7-9 8-14 9-16 8-15 5-19 4-13 1h-14l-22-2-21-5-15-6-16-9-14-11-7-7-10-13-10-19-7-21-3-15-1-9v-22l3-22 6-20 9-19 8-12 9-10 5-5 10-9 18-11 17-7 22-5z" fill="#020202"/>
<path transform="translate(2,153)" d="m0 0h63l1 2v44l6-5 7-8 12-12 1-2h2l2-4 12-12 2-3h65l-2 4-9 8-7 8-19 19-6 7h-2l-2 4-35 35-1 2h-2l-2 4-29 29-7 8-27 27-7 8-14 14h-2z" fill="#020202"/>
<path transform="translate(0,435)" d="m0 0h800v3h-81l-392 1h-260l-67-1z" fill="#8B8C8E"/>
<path transform="translate(621,460)" d="m0 0h11l6 3 6 7 2 6v10l-4 8-7 5-3 1h-12l-7-4-4-5-2-6v-10l3-7 5-5z" fill="#018258"/>
<path transform="translate(391,460)" d="m0 0h9l8 4 5 6 2 5v11l-4 8-7 5-3 1h-12l-9-6-4-9v-9l3-8 5-5z" fill="#008359"/>
<path transform="translate(540,460)" d="m0 0h12l9 6 4 8v13l-3 6-7 6-3 1h-12l-6-3-5-6-2-4v-13l4-8 6-5z" fill="#008258"/>
<path transform="translate(593,604)" d="m0 0h11l6 3 5 6 2 5v9l-4 8-6 5-5 2h-7l-7-3-6-7-2-5v-9l4-8 6-5z" fill="#F6F6F6"/>
<path transform="translate(453,456)" d="m0 0h9l8 16 9 20 2 8h-8l-4-7-2-1h-18l-3 2-3 6h-9l3-9 14-31z" fill="#03835A"/>
<path transform="translate(450,604)" d="m0 0h12l9 2 8 7 2 5v10l-4 6-6 5-6 2h-14l-2-7v-24z" fill="#F5F5F5"/>
<path transform="translate(116,461)" d="m0 0h24l5 3 4 6v9l-4 5-2 1v5l7 7 1 3-9-1-9-9v-2l-8-1v13h-8l-1-18z" fill="#018359"/>
<path transform="translate(332,456)" d="m0 0h6l9 11 9 12 2 1v-23l2-1h7v44h-5l-10-12-11-14-2-1v27h-7l-1-1v-42z" fill="#02835A"/>
<path transform="translate(490,460)" d="m0 0 21 1 5 3 4 7v7l-3 7-6 3-15 1-1 11h-6l-1-8v-31z" fill="#03825A"/>
<path transform="translate(355,609)" d="m0 0h13l8 3 5 8 1 7-4 8-5 4-5 2h-13l-2-7v-18z" fill="#F5F5F5"/>
<path transform="translate(193,538)" d="m0 0h18l7 3 3 4 1 7-3 6-6 3 2 4 6 7v3l-5-2-10-10-9-2v13l-5-1v-34z" fill="#020202"/>
<path transform="translate(650,538)" d="m0 0h18l7 3 3 5v8l-2 4-7 2 3 6 5 6v3l-4-1-7-7-3-4-10-2v14l-4-1-1-15v-15z" fill="#020202"/>
<path transform="translate(59,461)" d="m0 0h8l1 15h16l1-15h8v39h-7l-1-1-1-13-1-1h-15l-1 15h-7l-1-1z" fill="#01845A"/>
<path transform="translate(715,461)" d="m0 0h29l-1 8h-19l-1 1v6l20 1v7h-16l-4 1v6l17 1h3l1 7-2 1h-26l-1-12z" fill="#02835A"/>
<path transform="translate(770,538)" d="m0 0h18l7 3 4 7v6l-4 6-7 3-14 1v9l-5 1v-35z" fill="#020202"/>
<path transform="translate(261,461)" d="m0 0h30v6l-1 1-20 1v7l18 1 2 1v5l-21 1v8h20l2 1v6l-19 1-11-1z" fill="#00835A"/>
<path transform="translate(668,460)" d="m0 0h10l6 3 3 3-1 4-5-1-2-1h-10l-5 2-2 5-1 2 1 9 3 5 6 2 8-1 3-4 1-4h-9l-1-1v-5l2-1 11-1 2 2v14l-6 7-3 1h-12l-6-3-5-5-3-6v-9l3-8 5-6z" fill="#048259"/>
<path transform="translate(293,542)" d="m0 0h9l6 4 3 5v9l-3 6-6 5h-9l-6-4-3-5-1-8 3-7 4-4z" fill="#F8F8F9"/>
<path transform="translate(701,541)" d="m0 0 8 2 6 7 1 3v7l-3 6-5 4-2 1h-8l-5-3-4-6-1-9 3-6 6-5z" fill="#F8F8F8"/>
<path transform="translate(629,604)" d="m0 0h13l10 2 4 5 1 6-4 6-5 2 1 5 8 10v2l-4-2-8-11-1-2h-13v14l-3 1v-37z" fill="#F1F1F1"/>
<path transform="translate(762,460)" d="m0 0h11l8 4 2 4-5 3-6-4h-8l-3 1-1 4 5 3 12 2 6 5 1 2-1 10-6 5-3 1h-11l-7-3-4-5 1-3 4-1 4 4 9 2 5-2 1-7-15-3-8-7 1-9 6-5z" fill="#038259"/>
<path transform="translate(59,537)" d="m0 0 5 4 7 14 5 12 2 5v3l-4-1-3-5v-2h-21l-5 7-4-1 7-17 8-17z" fill="#020202"/>
<path transform="translate(0,456)" d="m0 0h36l1 1v6l-1 1h-12v35l-1 1h-8l-1-1v-31l-1-3-13-2z" fill="#01835A"/>
<path transform="translate(621,532)" d="m0 0 10 1 6 4v3l-10-2-9 1-5 3-4 6v11l3 6 4 3 3 1h9l6-4v-8h-9l-1-5 1-1h9l5 1 1 2v12l-4 6-7 3h-12l-9-5-5-7-1-4v-9l4-10 6-5z" fill="#020202"/>
<path transform="translate(155,604)" d="m0 0h12l9 2 5 5v8l-3 5-5 3h-17l1 14h-3v-36z" fill="#F1F1F2"/>
<path transform="translate(202,460)" d="m0 0 6 1 3 5 8 20h2l9-22 2-3h8l-5 14-10 23-2 2h-6l-7-14-9-22z" fill="#04845B"/>
<path transform="translate(392,467)" d="m0 0h8l6 4 2 4v10l-3 5-7 4-8-1-5-5-2-4v-8l3-5 3-3z" fill="#FEFEFE"/>
<path transform="translate(623,467)" d="m0 0 10 1 5 6 1 2v8l-3 5-4 4-9 1-5-3-4-7v-8l4-6z" fill="#FEFEFE"/>
<path transform="translate(543,467)" d="m0 0 9 1 5 4 1 2v12l-5 6-5 2-8-1-5-6-2-8 4-8z" fill="#FEFEFE"/>
<path transform="translate(158,538)" d="m0 0h26v5h-21v11h20v5h-20l1 10h19l1 5h-26l-1-21z" fill="#020202"/>
<path transform="translate(5,533)" d="m0 0 4 1 1 17 7-6 9-10 4-2 4 1-9 10-7 8 1 4 15 15 1 4-5-1-8-7-11-11-2-1v19h-5l-1-5 1-35z" fill="#020202"/>
<path transform="translate(456,467)" d="m0 0 3 1 6 13v3l-3 2v2l2 1h-7l-5-1 1 3-7 3-3 6h-9l3-9 9-20 5 2h3z" fill="#06845C"/>
<path transform="translate(699,537)" d="m0 0h7l8 4 5 6 2 12-2 7-7 7-5 2h-10l-8-4-4-6-1-3v-12l5-8 6-4zm2 4-7 3-5 6-1 8 3 8 4 4 3 1h8l6-4 3-4 1-3v-7l-3-6-6-5z" fill="#020202"/>
<path transform="translate(86,538)" d="m0 0 4 1 10 11 10 13v-23l1-2h4l1 35h-4l-9-10-11-14-1-1v25l-5 1z" fill="#020202"/>
<path transform="translate(253,533)" d="m0 0h13l7 3 1 3-3 2-6-2h-9l-6 3-4 6v11l3 6 4 3 4 1h7l6-2 5 1-2 4-7 3h-11l-10-5-5-7-1-4v-9l4-10 6-5z" fill="#020202"/>
<path transform="translate(515,538)" d="m0 0 5 2 10 12 8 11 1-25h4l1 10v26l-4-1-8-9-11-15-2-1v26l-5-1v-33z" fill="#020202"/>
<path transform="translate(295,537)" d="m0 0 9 1 6 4 5 7 1 7-2 10-5 6-7 3h-10l-6-3-5-6-2-5v-10l4-8 8-5zm-2 5-5 3-4 5-1 7 2 7 4 5 4 2h9l7-6 2-5v-9l-5-7-4-2z" fill="#020202"/>
<path transform="translate(324,538)" d="m0 0 5 1 12 15 5 7 2 1v-12l1-12h4l1 3v22l-1 11-4-1-11-14-8-11-2-1 1 27h-5z" fill="#020202"/>
<path transform="translate(574,461)" d="m0 0h8l1 30 3 1 15 1 1 4-1 2-6 1h-21z" fill="#01835A"/>
<path transform="translate(421,604)" d="m0 0h2l7 15 9 20v3h-2l-5-11h-21l-6 11-1-3 13-29z" fill="#F4F4F5"/>
<path transform="translate(566,537)" d="m0 0h8l8 4v3l-9-2h-6l-8 5-2 4v11l6 7 3 1h8l5-3 1-7-9-1-1-4 3-1h9l2 1v14l-6 5-3 1h-10l-7-3-5-6-2-6v-7l3-7 5-6z" fill="#020202"/>
<path transform="translate(201,604)" d="m0 0 4 2 5 11 9 20 1 5h-2l-5-10-21-1-5 9-2 1 1-5 14-30z" fill="#F3F3F4"/>
<path transform="translate(372,537)" d="m0 0h9l7 3v4l-6-1-1-1h-9l-4 1v8l18 4 5 5 1 5-4 7-6 3h-10l-8-3-2-2v-4l6 2 4 2h9l5-5-1-4-6-3-10-2-5-3-1-2v-7l2-4z" fill="#020202"/>
<path transform="translate(756,538)" d="m0 0 3 1 1 9-1 17-4 6-6 4h-10l-5-3-5-6-1-4v-23l5 1 1 22 3 6 4 2h6l4-1 2-4 1-4 1-22z" fill="#020202"/>
<path transform="translate(399,539)" d="m0 0 5 1 1 23 4 6 9 1 4-2 2-3 1-5 1-21 5 1-1 25-4 6-4 3-3 1h-8l-8-4-3-5-1-4z" fill="#020202"/>
<path transform="translate(0,153)" d="m0 0h2l1 178-3 1z" fill="#949596"/>
<path transform="translate(172,461)" d="m0 0h7v38l-1 1h-6l-1-1v-37z" fill="#04845B"/>
<path transform="translate(774,543)" d="m0 0h16l3 3 1 8-4 4-3 1h-12l-2-3v-12z" fill="#F3F3F3"/>
<path transform="translate(123,538)" d="m0 0h28l-1 5-10-1-1 32h-5v-31l-12-1z" fill="#020202"/>
<path transform="translate(685,476)" d="m0 0 3 2v14l-6 7-3 1h-12l-6-3-3-2v-2l9 1v2l12-2 2-4 2-6h-9l-1-1v-5l2-1z" fill="#006B43"/>
<path transform="translate(404,463)" d="m0 0 4 1 5 6 2 5v11l-4 8-7 5-3 1h-12v-2h8l1-3 8-2 2-6-1-12-3-5-3-3 3-1z" fill="#016E46"/>
<path transform="translate(698,461)" d="m0 0h6l1 1v38l-7-1z" fill="#018259"/>
<path transform="translate(593,604)" d="m0 0h11l6 3 5 6 2 5v9l-4 8-6 5-5 2h-7l-7-3-6-7-2-5v-9l4-8 6-5zm1 2-6 4-5 6-1 9 5 10 6 4 9 1 6-4 5-6 2-4-1-9-3-5-6-5-2-1z" fill="#020202"/>
<path transform="translate(197,543)" d="m0 0h16l3 3 1 7-3 3-2 1h-14l-2-2v-10z" fill="#F4F5F5"/>
<path transform="translate(654,543)" d="m0 0h15l4 4v7l-5 3h-14l-1-1v-12z" fill="#F7F7F7"/>
<path transform="translate(464,538)" d="m0 0h28v4l-4 1h-6l-1 2v29h-5l-1-32-10 1z" fill="#020202"/>
<path transform="translate(450,604)" d="m0 0h12l9 2 8 7 2 5v10l-4 6-6 5-6 2h-14l-2-7v-24zm2 2-1 4v20l2 9h13l8-5 4-6 1-6-3-9-6-5-7-2z" fill="#020202"/>
<path transform="translate(629,604)" d="m0 0h13l10 2 4 5 1 6-4 6-5 2 1 5 8 10v2l-4-2-8-11-1-2h-13v14l-3 1v-37zm2 2-1 1v16l1 2 16-1 6-4 2-3-1-5-5-5-4-1z" fill="#020202"/>
<path transform="translate(441,538)" d="m0 0 4 2v30l18-1 1 5h-24v-35z" fill="#020202"/>
<path transform="translate(379,474)" d="m0 0 4 2 2 11 5 5 8 1 7-4 3-4 1 4-5 5-6 2-1 2-10 1-7-5-4-9v-9h1l1 8h1l1-5-2-1z" fill="#07815A"/>
<path transform="translate(782,487)" d="m0 0 2 3-2 5-5 4-3 1h-11l-7-3-4-5 1-3 4-1 4 4 9 2 5-2h3v-3z" fill="#006D44"/>
<path transform="translate(497,468)" d="m0 0h12l3 3 1 5-2 4-2 1h-12l-2-4v-6z" fill="#FEFEFE"/>
<path transform="translate(155,604)" d="m0 0h12l9 2 5 5v8l-3 5-5 3h-17l1 14h-3v-36zm2 2-1 1v17l1 1h15l6-4 1-1v-7l-4-5-5-2z" fill="#020202"/>
<path transform="translate(201,604)" d="m0 0 4 2 5 11 9 20 1 5h-2l-5-10-21-1-5 9-2 1 1-5 14-30zm1 3-3 5-6 13v4h19l-3-9-5-12z" fill="#020202"/>
<path transform="translate(421,604)" d="m0 0h2l7 15 9 20v3h-2l-5-11h-21l-6 11-1-3 13-29zm0 3-6 12-3 7v3h19l-1-5-7-17z" fill="#020202"/>
<path transform="translate(316,609)" d="m0 0 3 1 9 11 11 13 1 1v-26h2l1 9v24l-6-5-9-11-8-11-2-1v27h-2z" fill="#020202"/>
<path transform="translate(554,604)" d="m0 0h9l6 3v2l-6-2h-10l-5 5 1 4 6 4 13 4 3 4v6l-3 5-6 3-10-1-6-4v-3l10 5h7l4-5v-7l-16-5-5-5v-7l5-5z" fill="#020202"/>
<path transform="translate(58,544)" d="m0 0 3 1 6 13 1 5h-17l3-10z" fill="#F5F5F5"/>
<path transform="translate(126,468)" d="m0 0h12l4 5-1 5-2 2h-14l-1-1v-7z" fill="#FEFEFE"/>
<path transform="translate(125,604)" d="m0 0h12l6 4v3l-7-4h-10l-6 4-4 6v10l4 8 5 3 8 1 12-6-2 4-10 5-8-1-7-4-6-10v-8l5-10 5-4z" fill="#020202"/>
<path transform="translate(355,609)" d="m0 0h13l8 3 5 8 1 7-4 8-5 4-5 2h-13l-2-7v-18zm1 2-1 1v24l4 4 10-1 6-4 4-5v-9l-4-6-5-4z" fill="#020202"/>
<path transform="translate(236,604)" d="m0 0h8l7 2 1 3-8-2h-9l-3 3-1 4 5 5 16 6 2 4-1 7-6 5h-11l-8-4v-2l12 4 7-1 4-5-1-5-18-8-3-4v-6l4-5z" fill="#020202"/>
<path transform="translate(487,603)" d="m0 0 3 1 10 24 3 8 3-4 12-27 2-1-1 6-11 25-4 7-3-4-8-18-5-13z" fill="#020202"/>
<path transform="translate(668,460)" d="m0 0h10l6 3 3 3-1 4-5-1-2-1v-2h-7v-1l6-2-11 1-2 3h-2v2h-2l-3 11h-1v-5h-2v-5l6-7z" fill="#03724A"/>
<path transform="translate(752,435)" d="m0 0h48v3h-70v-1h22z" fill="#919294"/>
<path transform="translate(762,460)" d="m0 0h11l8 4 2 4-5 3-6-4h-8l-3 1-3 3-1-3-2-1 5-6z" fill="#007048"/>
<path transform="translate(456,467)" d="m0 0 3 1 6 13v3h-14l1-6z" fill="#FEFEFE"/>
<path transform="translate(500,538)" d="m0 0 4 1v35h-4z" fill="#020202"/>
<path transform="translate(666,614)" d="m0 0 4 2v2l10 3 8 3 3 3v9l-6 5-5 1-9-2-5-4 1-2 7 4 8 1 5-3 1-2v-6l-5-3-11-3-6-7z" fill="#020202"/>
<path transform="translate(685,476)" d="m0 0 3 2v5l-2-1-3 9-4 2 3-5 1-4h-9l-1-1v-5l2-1z" fill="#037F57"/>
<path transform="translate(641,474)" d="m0 0h2l1 7v10l-5 5-4 3h-10l4-1v-3l11-3v-16z" fill="#006941"/>
<path transform="translate(270,478)" d="m0 0h20v5h-19l-2-1z" fill="#0A6C47"/>
<path transform="translate(489,462)" d="m0 0h1l1 20 2 7h1l1 11h-6l-1-11z" fill="#016941"/>
<path transform="translate(561,473)" d="m0 0 4 1v13l-2 5-3-1v-6l-1-2v-8z" fill="#006C43"/>
<path transform="translate(451,460)" d="m0 0h4v13l-5 1-3-2 1-5z" fill="#006B43"/>
<path transform="translate(532,604)" d="m0 0 2 1v36h-3v-36z" fill="#020202"/>
<path transform="translate(381,468)" d="m0 0 5 2-2 6h-2v5h-1l-1-6v4l-1 7-2-2v-12z" fill="#006B42"/>
<path transform="translate(290,609)" d="m0 0h3l12 26 2 4-1 3-3-4-10-22-1-3-2-2z" fill="#020202"/>
<path transform="translate(717,495)" d="m0 0 3 1v2l18-1 5-2-1 5h-26z" fill="#027149"/>
<path transform="translate(661,463)" d="m0 0h6l-2 4h-2v2h-2l-3 11h-1v-5h-2v-5z" fill="#046B44"/>
<path transform="translate(534,494)" d="m0 0 5 3 10 1 1-3 4-1v2l5-2-2 4-5 2h-12l-6-3z" fill="#08704A"/>
<path transform="translate(639,477)" d="m0 0h1l1 14-1 2-11 2 8-8z" fill="#00845A"/>
<path transform="translate(443,478)" d="m0 0h2l-1 6-3 6-3 8 2 1h-5l1-6z" fill="#026E46"/>
<path transform="translate(337,471)" d="m0 0h1v16l-5 3v-8l2-1v-6z" fill="#00673F"/>
<path transform="translate(289,612)" d="m0 0 1 2-6 13-4 10-3 5-1-3 12-26z" fill="#020202"/>
<path transform="translate(675,604)" d="m0 0h8l8 3-2 2-5-2h-9l-4 2-4 4 1-4 4-4z" fill="#020202"/>
<path transform="translate(674,462)" d="m0 0h5l-2 3 2 2-13 1-1-3 2-2z" fill="#007F55"/>
<path transform="translate(794,492)" d="m0 0 6 1v5l-7 1-1-6z" fill="#036644"/>
<path transform="translate(608,479)" d="m0 0h2l1 8 2 6 6 4-3 1-5-4-3-6z" fill="#0C6F4A"/>
<path transform="translate(527,474)" d="m0 0h2l1 13 3 5v2l-3-1-3-6z" fill="#1F7657"/>
<path transform="translate(301,492)" d="m0 0 5 1v6h-6l-1-4z" fill="#117351"/>
<path transform="translate(741,480)" d="m0 0h2v4h-14l-4-2z" fill="#007048"/>
<path transform="translate(778,463)" d="m0 0 4 2 1 3-5 3-4-4 1-2h3z" fill="#038158"/>
<path transform="translate(755,488)" d="m0 0 4 1 2 4-1 2-5-2-2 1-1-4z" fill="#0B835D"/>
<path transform="translate(214,490)" d="m0 0 5 5v4h-3l-2-5z" fill="#0A6E49"/>
<path transform="translate(462,487)" d="m0 0 4 1 1 2-14 1-1-3h10z" fill="#005B37"/>
</svg>
